<svg width="15" height="14" viewBox="0 0 15 14" fill="none" xmlns="http://www.w3.org/2000/svg">
<path d="M6.86596 0.290573C7.05716 -0.0968384 7.6096 -0.0968372 7.8008 0.290574L9.66313 4.06408C9.73906 4.21792 9.88582 4.32455 10.0556 4.34922L14.2199 4.95433C14.6474 5.01645 14.8182 5.54185 14.5088 5.84341L11.4955 8.78067C11.3726 8.90042 11.3166 9.07295 11.3456 9.24204L12.0569 13.3895C12.1299 13.8153 11.683 14.14 11.3006 13.939L7.57594 11.9808C7.42409 11.901 7.24268 11.901 7.09082 11.9808L3.36615 13.939C2.98375 14.14 2.53683 13.8153 2.60986 13.3895L3.32121 9.24204C3.35021 9.07295 3.29415 8.90042 3.1713 8.78067L0.157975 5.84341C-0.151391 5.54185 0.0193217 5.01645 0.446856 4.95433L4.61116 4.34922C4.78094 4.32455 4.9277 4.21792 5.00363 4.06408L6.86596 0.290573Z" fill="#EFC968"/>
</svg>
