<svg width="15" height="14" viewBox="0 0 15 14" fill="none" xmlns="http://www.w3.org/2000/svg">
<path d="M6.86587 0.290573C7.05707 -0.0968384 7.6095 -0.0968372 7.8007 0.290574L9.66304 4.06408C9.73896 4.21792 9.88573 4.32455 10.0555 4.34922L14.2198 4.95433C14.6473 5.01645 14.8181 5.54185 14.5087 5.84341L11.4954 8.78067C11.3725 8.90042 11.3165 9.07295 11.3455 9.24204L12.0568 13.3895C12.1298 13.8153 11.6829 14.14 11.3005 13.939L7.57584 11.9808C7.42399 11.901 7.24258 11.901 7.09073 11.9808L3.36606 13.939C2.98366 14.14 2.53673 13.8153 2.60976 13.3895L3.32111 9.24204C3.35011 9.07295 3.29405 8.90042 3.1712 8.78067L0.15788 5.84341C-0.151487 5.54185 0.0192263 5.01645 0.44676 4.95433L4.61107 4.34922C4.78084 4.32455 4.92761 4.21792 5.00353 4.06408L6.86587 0.290573Z" fill="#EFC968"/>
</svg>
