<svg width="15" height="14" viewBox="0 0 15 14" fill="none" xmlns="http://www.w3.org/2000/svg">
<path d="M6.86584 0.290572C7.05704 -0.0968379 7.60947 -0.0968367 7.80067 0.290573L9.66299 4.06406C9.73892 4.2179 9.88568 4.32453 10.0555 4.3492L14.2197 4.95431C14.6473 5.01643 14.818 5.54183 14.5086 5.84338L11.4953 8.78063C11.3725 8.90038 11.3164 9.07291 11.3454 9.242L12.0568 13.3895C12.1298 13.8153 11.6829 14.14 11.3005 13.9389L7.57581 11.9808C7.42396 11.9009 7.24255 11.9009 7.0907 11.9808L3.36604 13.9389C2.98365 14.14 2.53672 13.8153 2.60975 13.3895L3.3211 9.242C3.3501 9.07291 3.29404 8.90038 3.17119 8.78063L0.157879 5.84338C-0.151486 5.54182 0.0192262 5.01643 0.446758 4.95431L4.61105 4.3492C4.78082 4.32453 4.92758 4.2179 5.00351 4.06406L6.86584 0.290572Z" fill="#EFC968"/>
</svg>
