<svg width="15" height="14" viewBox="0 0 15 14" fill="none" xmlns="http://www.w3.org/2000/svg">
<path d="M6.86585 0.290572C7.05705 -0.0968381 7.60949 -0.096837 7.80068 0.290574L9.66302 4.06407C9.73894 4.21791 9.8857 4.32454 10.0555 4.34921L14.2198 4.95432C14.6473 5.01644 14.818 5.54184 14.5087 5.8434L11.4953 8.78065C11.3725 8.9004 11.3164 9.07293 11.3454 9.24202L12.0568 13.3895C12.1298 13.8153 11.6829 14.14 11.3005 13.939L7.57582 11.9808C7.42397 11.901 7.24256 11.901 7.09071 11.9808L3.36605 13.939C2.98365 14.14 2.53672 13.8153 2.60976 13.3895L3.3211 9.24202C3.3501 9.07293 3.29405 8.9004 3.1712 8.78065L0.157879 5.84339C-0.151487 5.54184 0.0192263 5.01644 0.446759 4.95432L4.61106 4.34921C4.78083 4.32454 4.9276 4.21791 5.00352 4.06407L6.86585 0.290572Z" fill="#EFC968"/>
</svg>
