<svg width="15" height="14" viewBox="0 0 15 14" fill="none" xmlns="http://www.w3.org/2000/svg">
<path d="M6.866 0.290573C7.05719 -0.0968384 7.60963 -0.0968372 7.80083 0.290574L9.66317 4.06408C9.73909 4.21792 9.88585 4.32455 10.0556 4.34922L14.2199 4.95433C14.6475 5.01645 14.8182 5.54185 14.5088 5.84341L11.4955 8.78067C11.3726 8.90042 11.3166 9.07295 11.3456 9.24204L12.0569 13.3895C12.13 13.8153 11.683 14.14 11.3006 13.939L7.57597 11.9808C7.42412 11.901 7.24271 11.901 7.09086 11.9808L3.36618 13.939C2.98379 14.14 2.53686 13.8153 2.60989 13.3895L3.32124 9.24204C3.35024 9.07295 3.29418 8.90042 3.17133 8.78067L0.158007 5.84341C-0.15136 5.54185 0.0193536 5.01645 0.446888 4.95433L4.6112 4.34922C4.78097 4.32455 4.92773 4.21792 5.00366 4.06408L6.866 0.290573Z" fill="#EFC968"/>
</svg>
