<svg width="15" height="14" viewBox="0 0 15 14" fill="none" xmlns="http://www.w3.org/2000/svg">
<path d="M6.86611 0.290572C7.05731 -0.0968381 7.60974 -0.096837 7.80094 0.290574L9.66327 4.06407C9.7392 4.21791 9.88596 4.32454 10.0557 4.34921L14.22 4.95432C14.6476 5.01644 14.8183 5.54184 14.5089 5.8434L11.4956 8.78065C11.3727 8.9004 11.3167 9.07293 11.3457 9.24202L12.057 13.3895C12.1301 13.8153 11.6831 14.14 11.3007 13.939L7.57608 11.9808C7.42423 11.901 7.24282 11.901 7.09097 11.9808L3.3663 13.939C2.98391 14.14 2.53698 13.8153 2.61001 13.3895L3.32136 9.24202C3.35036 9.07293 3.2943 8.9004 3.17145 8.78065L0.158134 5.84339C-0.151232 5.54184 0.0194808 5.01644 0.447014 4.95432L4.61131 4.34921C4.78109 4.32454 4.92785 4.21791 5.00378 4.06407L6.86611 0.290572Z" fill="#EFC968"/>
</svg>
