<svg width="15" height="14" viewBox="0 0 15 14" fill="none" xmlns="http://www.w3.org/2000/svg">
<path d="M6.86609 0.290572C7.05729 -0.0968379 7.60972 -0.0968367 7.80092 0.290573L9.66325 4.06406C9.73917 4.2179 9.88594 4.32453 10.0557 4.3492L14.22 4.95431C14.6475 5.01643 14.8182 5.54183 14.5089 5.84338L11.4956 8.78063C11.3727 8.90038 11.3167 9.07291 11.3457 9.242L12.057 13.3895C12.13 13.8153 11.6831 14.14 11.3007 13.9389L7.57606 11.9808C7.42421 11.9009 7.2428 11.9009 7.09095 11.9808L3.3663 13.9389C2.9839 14.14 2.53697 13.8153 2.61 13.3895L3.32135 9.242C3.35035 9.07291 3.29429 8.90038 3.17144 8.78063L0.158133 5.84338C-0.151232 5.54182 0.0194807 5.01643 0.447013 4.95431L4.6113 4.3492C4.78108 4.32453 4.92784 4.2179 5.00376 4.06406L6.86609 0.290572Z" fill="#EFC968"/>
</svg>
